<svg width="80" height="80" viewBox="0 0 80 80" fill="none" xmlns="http://www.w3.org/2000/svg">
  <!-- Background -->
  <circle cx="40" cy="40" r="40" fill="#F0E6D8"/>
  <!-- Shirt / body -->
  <ellipse cx="40" cy="82" rx="26" ry="18" fill="#7B2D3E"/>
  <!-- Neck -->
  <rect x="35" y="57" width="10" height="12" rx="4" fill="#C07840"/>
  <!-- Head -->
  <ellipse cx="40" cy="43" rx="17" ry="19" fill="#C07840"/>
  <!-- Long hair back layer -->
  <path d="M23 42 C22 55 24 70 32 75 L40 76 L48 75 C56 70 58 55 57 42 C57 36 54 26 40 25 C26 25 23 36 23 42Z" fill="#150900"/>
  <!-- Hair top -->
  <path d="M23 40 C23 28 30 22 40 22 C50 22 57 28 57 40 C57 36 54 26 40 25 C26 25 23 36 23 40Z" fill="#150900"/>
  <!-- Hair parting highlight -->
  <path d="M40 24 L40 30" stroke="#2A1200" stroke-width="1" fill="none"/>
  <!-- Ears -->
  <ellipse cx="23.5" cy="44" rx="2.5" ry="3.5" fill="#C07840"/>
  <ellipse cx="56.5" cy="44" rx="2.5" ry="3.5" fill="#C07840"/>
  <!-- Earrings -->
  <circle cx="23.5" cy="48" r="1.5" fill="#D4AF37"/>
  <circle cx="56.5" cy="48" r="1.5" fill="#D4AF37"/>
  <!-- Eyebrows -->
  <path d="M31 36 Q35.5 33.5 39 36" stroke="#150900" stroke-width="1.8" stroke-linecap="round" fill="none"/>
  <path d="M41 36 Q44.5 33.5 49 36" stroke="#150900" stroke-width="1.8" stroke-linecap="round" fill="none"/>
  <!-- Eyes -->
  <ellipse cx="36" cy="40" rx="3.2" ry="3" fill="#150900"/>
  <ellipse cx="44" cy="40" rx="3.2" ry="3" fill="#150900"/>
  <ellipse cx="37" cy="39" rx="1" ry="1" fill="#ffffff" opacity="0.6"/>
  <ellipse cx="45" cy="39" rx="1" ry="1" fill="#ffffff" opacity="0.6"/>
  <!-- Kohl/liner detail -->
  <path d="M33 40 Q36 42 39 40" stroke="#150900" stroke-width="0.8" fill="none" stroke-linecap="round"/>
  <path d="M41 40 Q44 42 47 40" stroke="#150900" stroke-width="0.8" fill="none" stroke-linecap="round"/>
  <!-- Nose -->
  <path d="M39 45 Q40 47 41 45" stroke="#A05E28" stroke-width="1.2" fill="none" stroke-linecap="round"/>
  <!-- Mouth -->
  <path d="M35 52 Q40 57 45 52" stroke="#8B3030" stroke-width="1.5" fill="none" stroke-linecap="round"/>
  <path d="M36 52 Q40 53.5 44 52" stroke="#C06050" stroke-width="0.8" fill="none" stroke-linecap="round"/>
</svg>
