<svg width="80" height="80" viewBox="0 0 80 80" fill="none" xmlns="http://www.w3.org/2000/svg">
  <!-- Background -->
  <circle cx="40" cy="40" r="40" fill="#DDE6F0"/>
  <!-- Shirt / body -->
  <ellipse cx="40" cy="82" rx="26" ry="18" fill="#1E3A5F"/>
  <!-- Collar -->
  <path d="M33 68 L40 74 L47 68 L44 64 L40 67 L36 64 Z" fill="#ffffff"/>
  <!-- Neck -->
  <rect x="35" y="57" width="10" height="12" rx="4" fill="#EAC8A0"/>
  <!-- Head -->
  <ellipse cx="40" cy="43" rx="17" ry="19" fill="#EAC8A0"/>
  <!-- Hair top -->
  <path d="M23 40 C23 28 30 22 40 22 C50 22 57 28 57 40 C57 36 54 26 40 25 C26 25 23 36 23 40Z" fill="#2A1A0E"/>
  <!-- Hair sides -->
  <ellipse cx="24" cy="43" rx="3" ry="6" fill="#2A1A0E"/>
  <ellipse cx="56" cy="43" rx="3" ry="6" fill="#2A1A0E"/>
  <!-- Eyebrows -->
  <path d="M32 36 Q36 34 39 36" stroke="#2A1A0E" stroke-width="1.5" stroke-linecap="round" fill="none"/>
  <path d="M41 36 Q44 34 48 36" stroke="#2A1A0E" stroke-width="1.5" stroke-linecap="round" fill="none"/>
  <!-- Eyes -->
  <ellipse cx="36" cy="40" rx="3" ry="3" fill="#2A1A0E"/>
  <ellipse cx="44" cy="40" rx="3" ry="3" fill="#2A1A0E"/>
  <ellipse cx="37" cy="39" rx="1" ry="1" fill="#ffffff" opacity="0.6"/>
  <ellipse cx="45" cy="39" rx="1" ry="1" fill="#ffffff" opacity="0.6"/>
  <!-- Nose -->
  <path d="M39 44 Q40 47 41 44" stroke="#D4A880" stroke-width="1.2" fill="none" stroke-linecap="round"/>
  <!-- Mouth -->
  <path d="M35 52 Q40 56 45 52" stroke="#C49070" stroke-width="1.5" fill="none" stroke-linecap="round"/>
  <!-- Ears -->
  <ellipse cx="23.5" cy="44" rx="2.5" ry="3.5" fill="#EAC8A0"/>
  <ellipse cx="56.5" cy="44" rx="2.5" ry="3.5" fill="#EAC8A0"/>
</svg>
