<svg width="80" height="80" viewBox="0 0 80 80" fill="none" xmlns="http://www.w3.org/2000/svg">
  <!-- Background -->
  <circle cx="40" cy="40" r="40" fill="#D6E8D8"/>
  <!-- Shirt / body -->
  <ellipse cx="40" cy="82" rx="26" ry="18" fill="#1E4D3A"/>
  <!-- Collar white shirt -->
  <path d="M34 68 L40 74 L46 68 L43 64 L40 67 L37 64 Z" fill="#ffffff"/>
  <!-- Neck -->
  <rect x="35" y="57" width="10" height="12" rx="4" fill="#6B3A2A"/>
  <!-- Head -->
  <ellipse cx="40" cy="43" rx="17" ry="19" fill="#6B3A2A"/>
  <!-- Short cropped hair -->
  <path d="M23 40 C23 28 30 22 40 22 C50 22 57 28 57 40 C57 35 53 24 40 24 C27 24 23 35 23 40Z" fill="#1A0800"/>
  <!-- Ears -->
  <ellipse cx="23.5" cy="44" rx="2.5" ry="3.5" fill="#6B3A2A"/>
  <ellipse cx="56.5" cy="44" rx="2.5" ry="3.5" fill="#6B3A2A"/>
  <!-- Eyebrows - bold -->
  <path d="M31 36 Q35 33 39 36" stroke="#1A0800" stroke-width="2" stroke-linecap="round" fill="none"/>
  <path d="M41 36 Q45 33 49 36" stroke="#1A0800" stroke-width="2" stroke-linecap="round" fill="none"/>
  <!-- Eyes -->
  <ellipse cx="36" cy="40" rx="3.2" ry="3" fill="#1A0800"/>
  <ellipse cx="44" cy="40" rx="3.2" ry="3" fill="#1A0800"/>
  <ellipse cx="37" cy="39" rx="1" ry="1" fill="#ffffff" opacity="0.7"/>
  <ellipse cx="45" cy="39" rx="1" ry="1" fill="#ffffff" opacity="0.7"/>
  <!-- Nose - broader -->
  <path d="M37 45 Q38 48 39 46 Q40 48 41 46 Q42 48 43 45" stroke="#50281A" stroke-width="1.2" fill="none" stroke-linecap="round"/>
  <!-- Mouth -->
  <path d="M34 52 Q40 57 46 52" stroke="#50281A" stroke-width="1.5" fill="none" stroke-linecap="round"/>
  <!-- Beard / stubble shadow -->
  <ellipse cx="40" cy="54" rx="10" ry="5" fill="#50281A" opacity="0.25"/>
  <!-- Jaw shade -->
  <path d="M26 50 Q27 60 40 64 Q53 60 54 50" fill="#50281A" opacity="0.1"/>
</svg>
